<svg xmlns="http://www.w3.org/2000/svg" xmlns:xlink="http://www.w3.org/1999/xlink" width="500" zoomAndPan="magnify" viewBox="0 0 375 374.999991" height="500" preserveAspectRatio="xMidYMid meet" version="1.2"><defs><clipPath id="6ef17a233b"><path d="M 112.636719 91.746094 L 262.636719 91.746094 L 262.636719 282.996094 L 112.636719 282.996094 Z M 112.636719 91.746094 "/></clipPath></defs><g id="73989c2292"><g clip-rule="nonzero" clip-path="url(#6ef17a233b)"><path style=" stroke:none;fill-rule:nonzero;fill:#000000;fill-opacity:1;" d="M 187.640625 91.789062 C 186.414062 91.789062 185.1875 91.820312 183.960938 91.878906 C 182.734375 91.941406 181.511719 92.03125 180.289062 92.148438 C 179.066406 92.269531 177.851562 92.417969 176.636719 92.597656 C 175.421875 92.777344 174.210938 92.988281 173.007812 93.226562 C 171.804688 93.464844 170.605469 93.734375 169.417969 94.03125 C 168.226562 94.328125 167.042969 94.652344 165.867188 95.007812 C 164.695312 95.363281 163.527344 95.746094 162.371094 96.160156 C 161.21875 96.570312 160.074219 97.011719 158.9375 97.480469 C 157.804688 97.949219 156.683594 98.445312 155.574219 98.96875 C 154.464844 99.492188 153.367188 100.039062 152.285156 100.617188 C 151.203125 101.195312 150.132812 101.796875 149.082031 102.425781 C 148.027344 103.054688 146.992188 103.710938 145.972656 104.390625 C 144.949219 105.070312 143.945312 105.773438 142.960938 106.503906 C 141.976562 107.230469 141.007812 107.984375 140.058594 108.761719 C 139.109375 109.535156 138.179688 110.335938 137.269531 111.15625 C 136.363281 111.976562 135.472656 112.820312 134.605469 113.6875 C 133.738281 114.550781 132.890625 115.4375 132.066406 116.34375 C 131.242188 117.25 130.441406 118.175781 129.664062 119.125 C 128.882812 120.070312 128.128906 121.035156 127.398438 122.015625 C 126.667969 123 125.960938 124 125.277344 125.015625 C 124.59375 126.035156 123.9375 127.066406 123.308594 128.117188 C 122.675781 129.164062 122.070312 130.230469 121.492188 131.308594 C 120.914062 132.386719 120.363281 133.480469 119.839844 134.585938 C 119.3125 135.691406 118.816406 136.8125 118.347656 137.941406 C 117.875 139.070312 117.433594 140.214844 117.019531 141.367188 C 116.609375 142.515625 116.222656 143.679688 115.867188 144.851562 C 115.511719 146.019531 115.183594 147.199219 114.886719 148.386719 C 114.585938 149.574219 114.316406 150.765625 114.078125 151.964844 C 113.839844 153.167969 113.628906 154.371094 113.449219 155.582031 C 113.269531 156.792969 113.117188 158.007812 113 159.222656 C 112.878906 160.441406 112.789062 161.660156 112.726562 162.882812 C 112.667969 164.105469 112.636719 165.328125 112.636719 166.550781 C 112.636719 212.730469 153.582031 250.910156 174.96875 276.953125 C 175.351562 277.421875 175.757812 277.867188 176.1875 278.289062 C 176.621094 278.710938 177.074219 279.105469 177.550781 279.476562 C 178.027344 279.851562 178.523438 280.195312 179.035156 280.511719 C 179.550781 280.828125 180.082031 281.117188 180.625 281.375 C 181.171875 281.632812 181.730469 281.859375 182.304688 282.058594 C 182.875 282.253906 183.457031 282.417969 184.046875 282.550781 C 184.636719 282.683594 185.230469 282.78125 185.832031 282.851562 C 186.433594 282.917969 187.035156 282.949219 187.640625 282.949219 C 188.246094 282.949219 188.847656 282.917969 189.449219 282.851562 C 190.050781 282.78125 190.644531 282.683594 191.234375 282.550781 C 191.824219 282.417969 192.40625 282.253906 192.976562 282.058594 C 193.550781 281.859375 194.109375 281.632812 194.65625 281.375 C 195.203125 281.117188 195.730469 280.828125 196.246094 280.511719 C 196.761719 280.195312 197.253906 279.851562 197.730469 279.476562 C 198.207031 279.105469 198.660156 278.710938 199.09375 278.289062 C 199.523438 277.867188 199.933594 277.421875 200.3125 276.953125 C 221.699219 250.910156 262.644531 210.53125 262.644531 166.550781 C 262.644531 165.328125 262.617188 164.105469 262.554688 162.882812 C 262.496094 161.660156 262.40625 160.441406 262.285156 159.222656 C 262.164062 158.007812 262.015625 156.792969 261.832031 155.582031 C 261.652344 154.371094 261.445312 153.167969 261.203125 151.964844 C 260.964844 150.765625 260.695312 149.574219 260.398438 148.386719 C 260.101562 147.199219 259.773438 146.019531 259.414062 144.851562 C 259.058594 143.679688 258.675781 142.515625 258.261719 141.367188 C 257.847656 140.214844 257.40625 139.070312 256.9375 137.941406 C 256.464844 136.8125 255.96875 135.691406 255.445312 134.585938 C 254.917969 133.480469 254.367188 132.386719 253.789062 131.308594 C 253.210938 130.230469 252.605469 129.164062 251.972656 128.117188 C 251.34375 127.066406 250.6875 126.035156 250.003906 125.015625 C 249.324219 124 248.617188 123 247.886719 122.015625 C 247.152344 121.035156 246.398438 120.070312 245.621094 119.125 C 244.839844 118.175781 244.039062 117.25 243.214844 116.34375 C 242.390625 115.4375 241.546875 114.550781 240.675781 113.6875 C 239.808594 112.820312 238.921875 111.976562 238.011719 111.15625 C 237.101562 110.335938 236.171875 109.535156 235.222656 108.761719 C 234.273438 107.984375 233.308594 107.230469 232.320312 106.503906 C 231.335938 105.773438 230.332031 105.070312 229.3125 104.390625 C 228.289062 103.710938 227.253906 103.054688 226.199219 102.425781 C 225.148438 101.796875 224.082031 101.195312 222.996094 100.617188 C 221.914062 100.039062 220.820312 99.492188 219.710938 98.96875 C 218.601562 98.445312 217.476562 97.949219 216.34375 97.480469 C 215.210938 97.011719 214.066406 96.570312 212.910156 96.160156 C 211.753906 95.746094 210.589844 95.363281 209.414062 95.007812 C 208.238281 94.652344 207.054688 94.328125 205.867188 94.03125 C 204.675781 93.734375 203.476562 93.464844 202.273438 93.226562 C 201.070312 92.988281 199.859375 92.777344 198.644531 92.597656 C 197.433594 92.417969 196.214844 92.269531 194.992188 92.148438 C 193.769531 92.03125 192.546875 91.941406 191.320312 91.878906 C 190.09375 91.820312 188.867188 91.789062 187.640625 91.789062 Z M 215.636719 203.5625 C 170.117188 231.734375 122.253906 184.023438 150.515625 138.652344 C 152.851562 134.910156 155.898438 131.875 159.652344 129.546875 C 205.167969 101.367188 253.039062 149.082031 224.765625 194.457031 C 222.433594 198.199219 219.390625 201.234375 215.636719 203.5625 Z M 215.636719 203.5625 "/></g><path style=" stroke:none;fill-rule:nonzero;fill:#0571d3;fill-opacity:1;" d="M 190.578125 120.121094 C 162.011719 118.296875 138.359375 141.945312 140.1875 170.515625 C 141.695312 194.128906 160.769531 213.203125 184.382812 214.710938 C 212.953125 216.539062 236.601562 192.890625 234.773438 164.320312 C 233.265625 140.707031 214.191406 121.632812 190.578125 120.121094 Z M 208.941406 190.933594 C 210.804688 184.53125 211.917969 177.164062 212.066406 169.238281 L 231.183594 169.238281 C 230.761719 179.398438 226.863281 188.671875 220.644531 195.898438 C 217.792969 193.902344 213.804688 192.210938 208.941406 190.933594 Z M 154.316406 195.898438 C 148.097656 188.671875 144.199219 179.398438 143.777344 169.238281 L 162.894531 169.238281 C 163.042969 177.164062 164.15625 184.53125 166.023438 190.933594 C 161.15625 192.210938 157.167969 193.902344 154.316406 195.898438 Z M 166.011719 143.933594 C 164.152344 150.328125 163.042969 157.683594 162.894531 165.59375 L 143.777344 165.59375 C 144.195312 155.484375 148.0625 146.253906 154.226562 139.039062 C 157.128906 141.003906 161.144531 142.667969 166.011719 143.933594 Z M 185.65625 165.59375 L 166.539062 165.59375 C 166.699219 158.050781 167.820312 150.929688 169.652344 144.769531 C 174.578125 145.765625 180.042969 146.328125 185.65625 146.433594 Z M 185.65625 169.238281 L 185.65625 188.402344 C 180.03125 188.503906 174.570312 189.078125 169.660156 190.085938 C 167.820312 183.921875 166.699219 176.792969 166.539062 169.238281 Z M 189.304688 169.238281 L 208.421875 169.238281 C 208.261719 176.792969 207.136719 183.921875 205.300781 190.085938 C 200.390625 189.078125 194.929688 188.503906 189.304688 188.402344 Z M 189.304688 165.59375 L 189.304688 146.429688 C 194.917969 146.328125 200.382812 145.761719 205.308594 144.769531 C 207.140625 150.929688 208.261719 158.050781 208.421875 165.59375 Z M 189.304688 142.785156 L 189.304688 123.851562 C 195.289062 124.988281 200.648438 131.640625 204.160156 141.285156 C 199.578125 142.179688 194.511719 142.6875 189.304688 142.785156 Z M 185.65625 123.851562 L 185.65625 142.785156 C 180.449219 142.6875 175.382812 142.179688 170.800781 141.285156 C 174.3125 131.640625 179.671875 124.988281 185.65625 123.851562 Z M 185.65625 192.046875 L 185.65625 210.980469 C 179.675781 209.847656 174.320312 203.207031 170.808594 193.566406 C 175.375 192.664062 180.4375 192.148438 185.65625 192.046875 Z M 189.304688 210.980469 L 189.304688 192.046875 C 194.519531 192.148438 199.585938 192.664062 204.152344 193.566406 C 200.640625 203.203125 195.285156 209.847656 189.304688 210.980469 Z M 212.066406 165.59375 C 211.917969 157.683594 210.808594 150.328125 208.949219 143.933594 C 213.816406 142.667969 217.835938 141.003906 220.734375 139.039062 C 226.898438 146.25 230.765625 155.484375 231.179688 165.59375 Z M 218.214844 136.320312 C 215.660156 137.9375 212.089844 139.363281 207.835938 140.453125 C 205.546875 133.988281 202.441406 128.722656 198.785156 125.15625 C 206.222656 127.148438 212.890625 131.054688 218.214844 136.320312 Z M 167.125 140.453125 C 162.871094 139.363281 159.300781 137.9375 156.746094 136.320312 C 162.070312 131.054688 168.738281 127.152344 176.179688 125.160156 C 172.519531 128.722656 169.414062 133.988281 167.125 140.453125 Z M 156.839844 198.605469 C 159.335938 196.964844 162.878906 195.515625 167.136719 194.410156 C 169.421875 200.863281 172.523438 206.117188 176.175781 209.675781 C 168.777344 207.695312 162.148438 203.820312 156.839844 198.605469 Z M 207.824219 194.410156 C 212.078125 195.515625 215.625 196.964844 218.121094 198.605469 C 212.8125 203.820312 206.183594 207.695312 198.785156 209.675781 C 202.4375 206.117188 205.539062 200.863281 207.824219 194.410156 Z M 207.824219 194.410156 "/></g></svg>